<?xml version="1.0" encoding="UTF-8"?> <svg xmlns="http://www.w3.org/2000/svg" id="Layer_1" data-name="Layer 1" viewBox="0 0 600 600"><defs><style>.cls-1{fill:#0b1f26;}</style></defs><path class="cls-1" d="M541.09,157.15h-29.7V142.6a6.74,6.74,0,0,0-5.56-6.64c-15.75-2.78-28.22-4.45-45.36-4.89V117.73a6.73,6.73,0,0,0-6.39-6.73c-60.33-3.09-110,11.52-151.77,44.52-41.74-33-91.44-47.63-151.76-44.52a6.74,6.74,0,0,0-6.4,6.73v13.34c-16.5.43-28.48,2.05-44.54,4.89A6.75,6.75,0,0,0,94,142.6v14.55H58.91a6.74,6.74,0,0,0-6.74,6.74V482.67a6.74,6.74,0,0,0,6.74,6.74H541.09a6.74,6.74,0,0,0,6.74-6.74V163.89A6.74,6.74,0,0,0,541.09,157.15Zm-43.18-8.87v90.06c0,66.22,0,128.94,0,200.49h-1.09c-39.71,0-111,10.74-159.78,24.42,31.65-19.59,77.61-36.8,117.65-42.54a6.72,6.72,0,0,0,5.78-6.67V144.55A256.28,256.28,0,0,1,497.91,148.28ZM447,124.21V408.27c-49.9,8.35-107.4,33.1-137.94,58.52V167.32C347,136.72,392.18,122.52,447,124.21Zm-289.36,0c54.81-1.66,100,12.51,137.94,43.11V466.79c-30.54-25.42-88-50.17-137.94-58.52V124.21Zm-50.1,117v-92.9a243,243,0,0,1,36.62-3.73V414a6.73,6.73,0,0,0,5.79,6.67c39.74,5.69,85.3,22.7,116.93,42.11-49.15-13.61-120.26-24.21-159.34-24C107.54,368.3,107.53,306.36,107.53,241.18ZM65.65,170.63h28.4v70.55c0,67.29,0,131.15,0,204.56a6.7,6.7,0,0,0,2.09,4.87,6.82,6.82,0,0,0,5,1.86c35.4-1.66,112,9.42,162.65,23.45H65.65Zm468.7,305.29H341.69c50.61-14,127.24-25.11,162.66-23.45a6.84,6.84,0,0,0,5-1.86,6.74,6.74,0,0,0,2.09-4.87c0-74.45,0-139.06,0-207.4V170.63h23Z"></path></svg> 