<?xml version="1.0" encoding="UTF-8"?> <svg xmlns="http://www.w3.org/2000/svg" id="Layer_1" data-name="Layer 1" viewBox="0 0 600 600"><defs><style>.cls-1{fill:#0b1f26;}</style></defs><path class="cls-1" d="M579,88.29H187.22A6.74,6.74,0,0,0,180.48,95V170.1H194V101.78H572.2V390.69H336.33v13.48H579a6.74,6.74,0,0,0,6.74-6.74V95A6.74,6.74,0,0,0,579,88.29Z"></path><path class="cls-1" d="M129.63,391.29a6.75,6.75,0,0,0,9.54,0l41-41c43-2.29,86.39-13.18,166.1-58a19.26,19.26,0,0,1,9.59-2.44,23.87,23.87,0,0,1,18.2,8.68,27.54,27.54,0,0,1,6.54,20.83,26.11,26.11,0,0,1-10.51,17.82c-38.86,29.19-96.58,57.94-154.41,76.9a6.74,6.74,0,0,0-4.65,6.4v91.18h13.49V425.4C282.89,405.77,338.68,377.7,378.2,348A39.47,39.47,0,0,0,394,321c1.31-10.95-2.08-22-9.52-31a37.53,37.53,0,0,0-28.61-13.59,33,33,0,0,0-16.2,4.18C260.33,325.15,219.93,335,177,337a6.76,6.76,0,0,0-4.46,2L134.4,377l-35-35a6.74,6.74,0,0,0-6-1.87c-51.78,9.28-79.15,42.16-79.15,95.1v76.48H27.8V435.23c0-45.68,21.14-72.26,64.61-81.17Z"></path><path class="cls-1" d="M61.08,251.3a73.33,73.33,0,1,0,73.34-73.36A73.4,73.4,0,0,0,61.08,251.3Zm133.18,0a59.85,59.85,0,1,1-59.84-59.88A59.9,59.9,0,0,1,194.26,251.3Z"></path><path class="cls-1" d="M350.45,205.6a6.93,6.93,0,0,0-9.53,0l-57.77,57.77,9.53,9.53,53-53L398,272.21a6.75,6.75,0,0,0,9.53,0l75.67-75.67v38.07h13.49V180.27a6.74,6.74,0,0,0-6.74-6.74H435.6V187h38.06l-70.9,70.89Z"></path></svg> 