<?xml version="1.0" encoding="UTF-8"?> <svg xmlns="http://www.w3.org/2000/svg" id="Layer_1" data-name="Layer 1" viewBox="0 0 600 600"><defs><style>.cls-1{fill:#0b1f26;}</style></defs><path class="cls-1" d="M147.19,169.42a59.5,59.5,0,1,0-59.49-59.5A59.57,59.57,0,0,0,147.19,169.42Zm0-105.51a46,46,0,1,1-46,46A46.07,46.07,0,0,1,147.19,63.91Z"></path><path class="cls-1" d="M41.11,211a29.08,29.08,0,0,0,4.77,10.42,33.89,33.89,0,0,0,5.28,5.42,36.63,36.63,0,0,0-1.43,4.74,96.52,96.52,0,0,0-3.12,24.93V358.94c0,18.41,12.32,31.4,31.32,33.86V525.53A36.54,36.54,0,0,0,114.45,562a37,37,0,0,0,30.17-15.52A36.63,36.63,0,0,0,174.55,562c21.37,0,36.87-15.56,36.87-37V267.16c7.35,2.08,16.23,4.42,21.7,5.85V525.39c0,18.2,12.67,36.63,36.89,36.63a36.63,36.63,0,0,0,29.9-15.48A36.62,36.62,0,0,0,329.81,562c21,0,36.89-15.75,36.89-36.63V273.05c5.45-1.42,14.44-3.79,21.86-5.89V525c0,21.44,15.51,37,36.88,37a36.66,36.66,0,0,0,29.94-15.52A37,37,0,0,0,485.54,562a36.54,36.54,0,0,0,36.52-36.49V392.8c19-2.46,31.32-15.45,31.32-33.86V256.5a95.59,95.59,0,0,0-3-24.63,36.09,36.09,0,0,0-1.51-5,34,34,0,0,0,5.29-5.43A28.9,28.9,0,0,0,558.88,211c.11-.41.21-.77.32-1.12,6.77-21.05-7.7-27.91-20.47-34l-1-.5c-8.77-4.17-16-7.28-22.91-7.29-11,.09-15.45,7.61-17.91,14.07a69.13,69.13,0,0,0-14.95-1.67,6.72,6.72,0,0,0-4.77,2L452.8,206.85,428.55,182.6a6.78,6.78,0,0,0-4.73-2c-15.64-.08-28.36,1.05-38.07,3.35a6.53,6.53,0,0,0-1.45-1.8c-13.18-11.45-29.67-13.82-53.7-14.05h-.06a6.75,6.75,0,0,0-4.75,2l-25.88,25.7L274.14,170.1a6.65,6.65,0,0,0-4.83-2c-24.09.23-40.62,2.6-53.79,14.05a6.52,6.52,0,0,0-1.41,1.77c-9.69-2.29-22.36-3.41-37.94-3.32a6.78,6.78,0,0,0-4.73,2l-24.25,24.25-24.35-24.34a6.72,6.72,0,0,0-4.77-2,69.13,69.13,0,0,0-14.95,1.67c-2.46-6.46-6.91-14-17.89-14.07-6.88,0-14.16,3.12-22.92,7.29l-1.05.5c-12.77,6-27.24,12.9-20.46,34C40.9,210.22,41,210.58,41.11,211Zm467.18-20.5c2.83-8.85,4.17-8.86,6.61-8.88H515c4.35,0,11.6,3.46,16.92,6l1.06.5c14.27,6.76,16.34,8.51,13.42,17.59-.15.47-.31,1-.5,1.7a16.73,16.73,0,0,1-2.41,5.73v0c-5.83,7.51-16.28,10-25.83,5.81C507,214.29,504.9,201.11,508.29,190.49ZM448,221.16a6.74,6.74,0,0,0,9.53,0l27.07-27.07a56,56,0,0,1,9,1.2c-1.52,14.32,3.83,29.53,18.6,36a37,37,0,0,0,15,3.24,34.42,34.42,0,0,0,9.53-1.39c.21.71.39,1.37.52,1.92a83.33,83.33,0,0,1,2.66,21.44V358.94c0,12.83-9.42,20.8-24.58,20.8a6.74,6.74,0,0,0-6.74,6.74v139a23.05,23.05,0,0,1-23,23,23.33,23.33,0,0,1-23.45-23.15,6.74,6.74,0,1,0-13.48,0,23.19,23.19,0,0,1-23.17,23.15c-11.64,0-23.39-7.27-23.39-23.52V258.11a6.75,6.75,0,0,0-8.85-6.41c-5.77,1.9-18.18,5.23-26.5,7.41V242.49a75.26,75.26,0,0,1,12-41.68c6.79-4.19,21.93-6.6,42.26-6.7ZM266.63,181.65l28.52,28.43a6.74,6.74,0,0,0,9.51,0l28.62-28.43c16.22.29,28.15,1.77,37.24,7.14-7.59,11-17.3,27.8-17.3,53.7v282.9c0,13.41-9.85,23.15-23.41,23.15a23.18,23.18,0,0,1-23.16-23.15,6.75,6.75,0,0,0-13.49,0A23.18,23.18,0,0,1,270,548.54c-18.47,0-23.4-14.55-23.4-23.15V242.49a94,94,0,0,0-17-53.86C238.64,183.39,250.53,181.93,266.63,181.65ZM106.39,195.28a56,56,0,0,1,9-1.2l27.07,27.07a6.74,6.74,0,0,0,9.53,0l27.05-27c20.58.1,35.83,2.57,42.49,6.85a80.92,80.92,0,0,1,11.63,41.53v16.58c-8.32-2.19-20.6-5.49-26.33-7.37a6.75,6.75,0,0,0-8.85,6.41V525c0,16.25-11.75,23.52-23.39,23.52a23.19,23.19,0,0,1-23.17-23.15,6.74,6.74,0,0,0-13.48,0,23.33,23.33,0,0,1-23.45,23.15,23.06,23.06,0,0,1-23-23v-139a6.74,6.74,0,0,0-6.74-6.74c-15.16,0-24.58-8-24.58-20.8V256.5a83.83,83.83,0,0,1,2.74-21.74c.09-.44.25-1,.44-1.62a34.39,34.39,0,0,0,9.54,1.39,36.91,36.91,0,0,0,15-3.23C102.56,224.82,107.91,209.6,106.39,195.28ZM67,188.1l1.07-.51c5.31-2.52,12.56-6,16.92-6h.09c2.42,0,3.76,0,6.59,8.87C95.1,201.11,93,214.29,82.35,219c-9.51,4.19-20,1.69-25.82-5.82v0a16.73,16.73,0,0,1-2.41-5.73c-.19-.66-.35-1.23-.49-1.65C50.69,196.61,52.76,194.86,67,188.1Z"></path><path class="cls-1" d="M299.92,157A59.5,59.5,0,1,0,240.4,97.47,59.56,59.56,0,0,0,299.92,157Zm0-105.52a46,46,0,1,1-46,46A46.06,46.06,0,0,1,299.92,51.46Z"></path><path class="cls-1" d="M452.8,169.42a59.5,59.5,0,1,0-59.5-59.5A59.56,59.56,0,0,0,452.8,169.42Zm0-105.51a46,46,0,1,1-46,46A46.06,46.06,0,0,1,452.8,63.91Z"></path></svg> 