<?xml version="1.0" encoding="UTF-8"?> <svg xmlns="http://www.w3.org/2000/svg" id="Layer_1" data-name="Layer 1" viewBox="0 0 600 600"><defs><style>.cls-1{fill:#0b1f26;}</style></defs><path class="cls-1" d="M453.34,371v13.48h71.94a6.74,6.74,0,0,0,6.74-6.74V73.52a6.74,6.74,0,0,0-6.74-6.74H79.65a6.74,6.74,0,0,0-6.74,6.74V377.71a6.74,6.74,0,0,0,6.74,6.74H314.31V371H86.4V80.26H518.54V371Z"></path><path class="cls-1" d="M339.9,183.92A43.94,43.94,0,1,0,383.84,140,44,44,0,0,0,339.9,183.92Zm74.39,0a30.45,30.45,0,1,1-30.45-30.44A30.49,30.49,0,0,1,414.29,183.92Z"></path><path class="cls-1" d="M574.86,468.82H561.08V448.53a13.89,13.89,0,0,0-13.88-13.87H431V355a32.51,32.51,0,0,0,13.94-26.5l0-51.89c0-16.24-10.85-34.94-34.66-37.64a6.67,6.67,0,0,0-4.33,1l-22.09,13.74-22.12-13.77a6.63,6.63,0,0,0-4.31-1c-23.81,2.66-34.66,21.61-34.66,38.09v51.47a32.49,32.49,0,0,0,14,26.5v79.7H52.8a13.89,13.89,0,0,0-13.88,13.87v20.29H25.13a13.87,13.87,0,0,0-13.87,13.85v43.81A6.74,6.74,0,0,0,18,533.22H582a6.74,6.74,0,0,0,6.74-6.74V482.67A13.87,13.87,0,0,0,574.86,468.82ZM346.64,345.27a19.22,19.22,0,0,1-10.4-16.81V277c0-10.49,6.34-21.79,20.45-24.37l23.58,14.69a6.74,6.74,0,0,0,7.13,0L411,252.65c15.06,2.7,20.47,14.38,20.47,23.92l0,51.89A19.21,19.21,0,0,1,421,345.27a6.75,6.75,0,0,0-3.55,5.94v83.45H350.2V351.21A6.75,6.75,0,0,0,346.64,345.27ZM575.26,519.74H24.74V482.67a.39.39,0,0,1,.39-.37H45.66a6.74,6.74,0,0,0,6.74-6.74v-27a.38.38,0,0,1,.4-.38H547.2a.38.38,0,0,1,.4.38v27a6.74,6.74,0,0,0,6.74,6.74h20.52a.38.38,0,0,1,.4.37Z"></path></svg> 