<?xml version="1.0" encoding="UTF-8"?> <svg xmlns="http://www.w3.org/2000/svg" id="Layer_1" data-name="Layer 1" viewBox="0 0 600 600"><defs><style>.cls-1{fill:#0b1f26;}</style></defs><path class="cls-1" d="M50.79,301.28a41.84,41.84,0,0,0-13,30.81A43.87,43.87,0,0,0,50.4,363a42.85,42.85,0,0,0,30.46,12.61H99.19a39.47,39.47,0,0,0-10.37,27.09c0,22.62,18.2,41,40.53,41H351.67v20.91c-50.25,1.45-82.46,23.92-113.58,45.73-30.76,21.55-59.8,41.9-105.38,41.9v13.49c49.83,0,82-22.55,113.12-44.35C277.7,499,307.8,478,356.8,478c47.28,0,78.11,21,110.75,43.25,32.13,21.89,65.35,44.53,114.45,44.53V552.24c-44.94,0-75-20.49-106.86-42.18-31.07-21.18-63.16-43-110-45.36v-21h10.45c67.84,0,136.53-52.85,136.53-153.87,0-98.45-31.66-142.61-130.29-181.74C323.56,84.88,279.74,63.32,267.4,51.77s-22.34-20.93-35.9-16.26c-16.42,5.56-28.8,27-28.8,49.87,0,13.51,4.34,37.16,30.26,57.94H97.1C76.39,143.32,54,159.78,54,186.39a42.66,42.66,0,0,0,12,29.73H61A43.53,43.53,0,0,0,30.53,229a43.14,43.14,0,0,0,20.26,72.31ZM40.05,238.52A30.41,30.41,0,0,1,61,229.61h.07l149.56-.19h.06a6.74,6.74,0,0,0,0-13.48l-113.56,0h0a29.58,29.58,0,0,1-29.56-29.54c0-18.27,15.35-29.58,29.57-29.58H255.5A6.74,6.74,0,0,0,259,144.31c-.42-.26-.87-.51-1.31-.76l-1-.59c-35.27-19.61-40.52-44.49-40.5-57.57,0-16.8,8.81-33.45,19.67-37.12,5.4-1.86,10.41,2.18,22.4,13.42,19.62,18.36,89.48,47.33,118.61,58.93,93.33,37,121.79,76.57,121.79,169.21,0,92.17-61.91,140.39-123,140.39H365.16V306c19.31-2.66,37.91-16.44,37.91-37.42,0-29-24.43-34.43-44.06-38.82-21.5-4.82-30.92-8.36-30.92-22,0-15.57,13.89-28.73,30.33-28.73A34.63,34.63,0,0,1,393,213.56H406.5A48.12,48.12,0,0,0,365.16,166V150.23H351.67V166c-20.95,3.14-37.06,20.6-37.06,41.66,0,25.89,23,31,41.45,35.18,20.79,4.66,33.53,8.39,33.53,25.67,0,15.09-16.18,24.43-31.17,24.43a34.63,34.63,0,0,1-34.6-34.59H310.33a48.12,48.12,0,0,0,41.34,47.55v86.17a185.07,185.07,0,0,1-37.8-31.75c3.22-9.94,10-36.86-2.36-57.36-15.13-25.09-52.17-29.27-53.74-29.43a6.74,6.74,0,0,0-7,4.2c-.58,1.47-14.11,36.17,1,61.25,12.88,21.34,41.54,27.52,50.81,29,5.5,6.29,23.74,25.82,49,39.67v22.53H129.35c-14.65,0-27-12.62-27-27.55,0-16.51,13.7-26.82,26.56-27.09H233.41a6.74,6.74,0,1,0,0-13.48H80.87a29.45,29.45,0,0,1-20.94-8.66,30.35,30.35,0,0,1-8.66-21.35c0-18.17,15.16-29.46,29.3-29.59h140.6a6.75,6.75,0,1,0,0-13.49H61a29.55,29.55,0,0,1-29.54-29.54A28.93,28.93,0,0,1,40.05,238.52Zm223.32,93.53c-8.75-14.49-4.45-34.83-1.71-44.2,9.56,1.92,29.52,7.56,38.31,22.12s4.44,34.8,1.7,44.16C292.1,352.2,272.12,346.55,263.37,332.05Z"></path><path class="cls-1" d="M387.38,327.1c-15.21,24.51-3.71,58.06-3.22,59.48a6.74,6.74,0,0,0,6.36,4.51,8.24,8.24,0,0,0,.85,0c1.48-.19,36.58-4.86,51.78-29.4h0c15.18-24.53,3.72-58,3.22-59.44a6.72,6.72,0,0,0-7.2-4.46C437.69,297.92,402.55,302.58,387.38,327.1Zm47.81-14.89c2.2,9.31,5.12,28.4-3.51,42.33h0c-8.63,13.94-27,19.85-36.34,22-2.21-9.32-5.14-28.44,3.5-42.36S425.86,314.38,435.19,312.21Z"></path></svg> 