<?xml version="1.0" encoding="UTF-8"?> <svg xmlns="http://www.w3.org/2000/svg" id="Layer_1" data-name="Layer 1" viewBox="0 0 600 600"><defs><style>.cls-1{fill:#0b1f26;}</style></defs><path class="cls-1" d="M60.11,344.63A40,40,0,1,0,84.5,416.14L232.06,524.47a33.64,33.64,0,1,0,48-10.53l24.05-54.16-12.32-5.47-24.12,54.32A34,34,0,0,0,261,508a33.38,33.38,0,0,0-19.77,6.48L93.67,406.15a39.64,39.64,0,0,0,6.38-21.57c0-.41,0-.81-.06-1.21l103.52-20.76-2.65-13.22L97.31,370.15a40,40,0,0,0-10-14.71l65.73-100a33.36,33.36,0,0,0,12.46,2.42,33.59,33.59,0,0,0,29-50.71L324.65,89.67a36,36,0,0,0,18,7.19l7.18,92.36,13.44-1.05-7.18-92.45a36.34,36.34,0,0,0,22-17.32l117.55,38.15A32.36,32.36,0,0,0,521,156l11.54,121.15a40,40,0,0,0-32,32.5H477.78v13.48h22.79A39.92,39.92,0,1,0,546.09,277L534.54,155.74a32.48,32.48,0,1,0-33-51.46L382.3,65.59a36.64,36.64,0,0,0,.34-4.71,36.15,36.15,0,0,0-72.22-2.31L85.67,86.45A33.68,33.68,0,1,0,70.5,126.37l68.23,77.56a33.53,33.53,0,0,0,3.07,44.12L76.09,348A39.6,39.6,0,0,0,60.11,344.63Zm506.25-28.24a26.47,26.47,0,1,1-26.45-26.47A26.5,26.5,0,0,1,566.36,316.39Zm-39.15-211.3a19,19,0,1,1-19,19A19,19,0,0,1,527.21,105.09ZM165.53,244.39a20.18,20.18,0,1,1,20.18-20.18A20.2,20.2,0,0,1,165.53,244.39ZM87.32,99.83,312.05,72a36.2,36.2,0,0,0,3.57,7.7L185.47,197.15A33.36,33.36,0,0,0,148.84,195L80.61,117.45A33.41,33.41,0,0,0,87.32,99.83ZM346.47,38.2a22.69,22.69,0,1,1-22.68,22.68A22.72,22.72,0,0,1,346.47,38.2Zm-312.83,59a20.17,20.17,0,1,1,20.18,20.18A20.2,20.2,0,0,1,33.64,97.18ZM60.11,411a26.47,26.47,0,1,1,26.46-26.46A26.5,26.5,0,0,1,60.11,411ZM261,521.44a20.18,20.18,0,1,1-20.16,20.17A20.21,20.21,0,0,1,261,521.44Z"></path><path class="cls-1" d="M223.3,325.08A116.34,116.34,0,1,0,339.63,208.74,116.47,116.47,0,0,0,223.3,325.08Zm219.19,0A102.86,102.86,0,1,1,339.63,222.23,103,103,0,0,1,442.49,325.08Z"></path><path class="cls-1" d="M297.17,292.11a42.48,42.48,0,0,0,24.94,38.63c-28.87,5.28-47.87,23.64-47.87,48.3v6.26h13.49V379c0-25.15,26.07-36.4,51.9-36.4s51.91,11.25,51.91,36.4v6.26H405V379c0-24.66-19-43-47.87-48.3a42.44,42.44,0,1,0-60-38.63Zm71.45,0a29,29,0,1,1-29-29A29,29,0,0,1,368.62,292.11Z"></path></svg> 